 <svg width="0" height="0" class="hidden">
    <symbol version="1.1" xml:space="preserve" xmlns="http://www.w3.org/2000/svg" xmlns:xlink="http://www.w3.org/1999/xlink" viewBox="0 0 512 512" id="cross">
        <g id="layer">
        <g>
            <line x1="169.449" x2="342.551" y1="169.449" y2="342.551"></line>
            <line x1="342.551" x2="169.449" y1="169.449" y2="342.551"></line>
        </g>
        <g>
            <path d="M256,59c26.602,0,52.399,5.207,76.677,15.475c23.456,9.921,44.526,24.128,62.623,42.225    c18.098,18.098,32.304,39.167,42.226,62.624C447.794,203.601,453,229.398,453,256c0,26.602-5.206,52.399-15.475,76.677    c-9.922,23.456-24.128,44.526-42.226,62.623c-18.097,18.098-39.167,32.304-62.623,42.226C308.399,447.794,282.602,453,256,453    c-26.602,0-52.399-5.206-76.676-15.475c-23.457-9.922-44.526-24.128-62.624-42.226c-18.097-18.097-32.304-39.167-42.225-62.623    C64.207,308.399,59,282.602,59,256c0-26.602,5.207-52.399,15.475-76.676c9.921-23.457,24.128-44.526,42.225-62.624    c18.098-18.097,39.167-32.304,62.624-42.225C203.601,64.207,229.398,59,256,59 M256,43C138.363,43,43,138.363,43,256    s95.363,213,213,213s213-95.363,213-213S373.637,43,256,43L256,43z"></path>
        </g>
        </g>
        <g id="expanded">
        <g>
            <path d="M267.314,256l80.894-80.894c3.124-3.124,3.124-8.189,0-11.313c-3.125-3.124-8.189-3.124-11.314,0L256,244.686    l-80.894-80.894c-3.124-3.124-8.189-3.124-11.313,0c-3.125,3.124-3.125,8.189,0,11.313L244.686,256l-80.894,80.894    c-3.125,3.125-3.125,8.189,0,11.314c1.562,1.562,3.609,2.343,5.657,2.343s4.095-0.781,5.657-2.343L256,267.314l80.894,80.894    c1.563,1.562,3.609,2.343,5.657,2.343s4.095-0.781,5.657-2.343c3.124-3.125,3.124-8.189,0-11.314L267.314,256z"></path>
            <path d="M256,59c26.602,0,52.399,5.207,76.677,15.475c23.456,9.921,44.526,24.128,62.623,42.225    c18.098,18.098,32.304,39.167,42.226,62.624C447.794,203.601,453,229.398,453,256c0,26.602-5.206,52.399-15.475,76.677    c-9.922,23.456-24.128,44.526-42.226,62.623c-18.097,18.098-39.167,32.304-62.623,42.226C308.399,447.794,282.602,453,256,453    c-26.602,0-52.399-5.206-76.676-15.475c-23.457-9.922-44.526-24.128-62.624-42.226c-18.097-18.097-32.304-39.167-42.225-62.623    C64.207,308.399,59,282.602,59,256c0-26.602,5.207-52.399,15.475-76.676c9.921-23.457,24.128-44.526,42.225-62.624    c18.098-18.097,39.167-32.304,62.624-42.225C203.601,64.207,229.398,59,256,59 M256,43C138.363,43,43,138.363,43,256    s95.363,213,213,213s213-95.363,213-213S373.637,43,256,43L256,43z"></path>
        </g>
        </g>
    </symbol>
      <symbol version="1.1" id="prev-page" xmlns="http://www.w3.org/2000/svg" xmlns:xlink="http://www.w3.org/1999/xlink" x="0px" y="0px" xml:space="preserve" viewBox="0 0 300.003 300.003">
      <g>
        <g>
          <path d="M150,0C67.159,0,0.001,67.159,0.001,150c0,82.838,67.157,150.003,149.997,150.003S300.002,232.838,300.002,150
        C300.002,67.159,232.839,0,150,0z M189.226,218.202c-2.736,2.734-6.321,4.101-9.902,4.101c-3.582,0-7.169-1.367-9.902-4.103
        l-56.295-56.292c-0.838-0.537-1.639-1.154-2.368-1.886c-2.796-2.799-4.145-6.479-4.077-10.144
        c-0.065-3.667,1.281-7.35,4.077-10.146c0.734-0.731,1.53-1.349,2.368-1.886l56.043-56.043c5.47-5.465,14.34-5.467,19.808,0.003
        c5.47,5.467,5.47,14.335,0,19.808l-48.265,48.265l48.514,48.516C194.695,203.864,194.695,212.732,189.226,218.202z"></path>
        </g>
      </g>
    </symbol>
    <symbol version="1.1" id="next-page" xmlns="http://www.w3.org/2000/svg" xmlns:xlink="http://www.w3.org/1999/xlink" x="0px" y="0px" xml:space="preserve" viewBox="0 0 300 300">
      <g>
        <g>
          <path d="M150,0C67.157,0,0,67.157,0,150c0,82.841,67.157,150,150,150s150-67.159,150-150C300,67.157,232.843,0,150,0z
        M195.708,160.159c-0.731,0.731-1.533,1.349-2.368,1.886l-56.295,56.295c-2.734,2.736-6.318,4.103-9.902,4.103
        s-7.166-1.367-9.902-4.103c-5.47-5.47-5.47-14.34,0-19.808l48.509-48.516l-48.265-48.265c-5.47-5.473-5.47-14.34,0-19.808
        c5.47-5.47,14.338-5.467,19.808-0.003l56.046,56.043c0.835,0.537,1.637,1.154,2.365,1.886c2.796,2.796,4.145,6.479,4.082,10.146
        C199.852,153.68,198.506,157.361,195.708,160.159z"></path>
        </g>
      </g>
    </symbol>
      <symbol xmlns="http://www.w3.org/2000/svg" viewBox="0 0 12 12" id="Vector">
      <path clip-rule="evenodd" d="M7.42618 6.00003L11.7046 1.72158C12.0985 1.32775 12.0985 0.689213 11.7046 0.295433C11.3108 -0.0984027 10.6723 -0.0984027 10.2785 0.295433L5.99998 4.57394L1.72148 0.295377C1.32765 -0.098459 0.68917 -0.098459 0.295334 0.295377C-0.0984448 0.689213 -0.0984448 1.32775 0.295334 1.72153L4.57383 5.99997L0.295334 10.2785C-0.0984448 10.6723 -0.0984448 11.3108 0.295334 11.7046C0.68917 12.0985 1.32765 12.0985 1.72148 11.7046L5.99998 7.42612L10.2785 11.7046C10.6723 12.0985 11.3108 12.0985 11.7046 11.7046C12.0985 11.3108 12.0985 10.6723 11.7046 10.2785L7.42618 6.00003Z"></path>
    </symbol>
  </svg>